M48
; DRILL file KiCad 10.0.3 date 2026-06-17T17:33:59
; FORMAT={-:-/ absolute / metric / decimal}
; #@! TF.CreationDate,2026-06-17T17:33:59+05:30
; #@! TF.GenerationSoftware,Kicad,Pcbnew,10.0.3
; #@! TF.FileFunction,Plated,1,2,PTH
FMAT,2
METRIC
; #@! TA.AperFunction,Plated,PTH,ComponentDrill
T1C0.750
; #@! TA.AperFunction,Plated,PTH,ComponentDrill
T2C0.800
; #@! TA.AperFunction,Plated,PTH,ComponentDrill
T3C0.900
; #@! TA.AperFunction,Plated,PTH,ComponentDrill
T4C1.100
%
G90
G05
T1
X97.274Y-78.447
X98.544Y-78.447
X99.814Y-78.447
X135.774Y-121.447
X137.044Y-121.447
X138.314Y-121.447
X179.774Y-121.447
X181.044Y-121.447
X182.314Y-121.447
T2
X91.734Y-91.537
X91.734Y-95.587
X99.354Y-91.537
X99.354Y-95.587
X109.104Y-98.047
X109.104Y-103.127
X111.644Y-100.587
X113.5Y-80.69
X113.5Y-88.31
X119.744Y-100.087
X127.344Y-100.087
X129.544Y-116.277
X129.544Y-123.897
X156.19Y-81.5
X163.81Y-81.5
X189.044Y-116.467
X189.044Y-124.087
T3
X79.554Y-77.537
X79.554Y-85.007
X82.094Y-77.537
X82.094Y-85.007
X157.284Y-69.587
X159.824Y-69.587
T4
X143.794Y-118.837
X143.794Y-123.337
X150.294Y-118.837
X150.294Y-123.337
X166.794Y-118.837
X166.794Y-123.337
X173.294Y-118.837
X173.294Y-123.337
M30
